<?xml version="1.0" standalone="no"?>
<!DOCTYPE svg PUBLIC "-//W3C//DTD SVG 20010904//EN"
 "http://www.w3.org/TR/2001/REC-SVG-20010904/DTD/svg10.dtd">
<svg version="1.0" xmlns="http://www.w3.org/2000/svg"
 width="256.000000pt" height="256.000000pt" viewBox="0 0 256.000000 256.000000"
 preserveAspectRatio="xMidYMid meet">
<metadata>
Created by potrace 1.14, written by Peter Selinger 2001-2017
</metadata>
<g transform="translate(0.000000,256.000000) scale(0.100000,-0.100000)"
fill="#000000" stroke="none">
<path d="M0 1280 l0 -1280 615 0 615 0 -36 56 c-20 31 -37 67 -38 79 0 13 -3
22 -5 20 -2 -2 -10 3 -19 11 -12 12 -14 31 -9 89 3 40 11 83 17 95 8 15 8 20
1 16 -7 -4 -11 1 -11 13 0 12 4 21 8 21 5 0 6 14 4 31 -4 24 -2 30 8 24 10 -6
12 -4 7 9 -4 10 -7 20 -7 22 0 2 -6 4 -13 4 -16 0 -47 36 -47 55 0 8 -4 15 -8
15 -4 0 -13 14 -20 32 -9 25 -9 34 1 40 6 4 7 8 2 8 -6 0 -16 -5 -21 -10 -7
-7 -11 -6 -11 4 0 8 3 14 6 13 3 -1 18 6 32 16 26 17 86 20 95 5 3 -4 18 -8
34 -8 16 0 31 -4 34 -8 6 -10 36 -9 53 1 7 4 40 7 73 6 50 -2 65 2 82 19 l21
20 -31 16 c-17 9 -46 16 -65 16 -39 0 -97 18 -97 30 0 14 14 19 58 21 23 2 42
4 42 6 0 1 -10 12 -22 24 -13 12 -18 19 -12 16 6 -4 17 5 24 19 10 17 16 21
21 12 12 -20 32 5 35 44 l4 33 -23 -27 c-15 -18 -36 -29 -64 -34 -24 -4 -43
-10 -43 -15 0 -5 -7 -9 -15 -9 -8 0 -15 4 -15 9 0 15 -40 20 -71 9 -35 -12
-74 9 -89 47 -10 26 5 95 23 107 5 3 12 34 13 68 2 34 6 65 8 68 2 4 -1 18 -6
32 -15 40 -26 6 -21 -66 2 -40 0 -64 -7 -64 -5 0 -10 -7 -10 -15 0 -8 -4 -15
-9 -15 -13 0 -20 -88 -10 -124 10 -38 76 -119 90 -110 5 3 9 2 8 -3 -4 -25 4
-33 34 -33 23 0 34 -5 34 -15 0 -16 -20 -18 -52 -6 -11 5 -24 5 -30 1 -10 -8
-40 -13 -62 -11 -18 2 -4 28 18 34 21 6 22 38 1 59 -17 17 -27 1 -11 -19 12
-15 12 -16 -3 -10 -12 4 -15 2 -11 -9 4 -10 0 -12 -13 -7 -14 5 -16 3 -11 -10
5 -15 3 -16 -13 -7 -12 7 -21 7 -25 0 -10 -16 -35 -11 -35 7 0 13 -3 14 -12 5
-19 -19 -24 -15 -57 38 -17 28 -37 50 -45 50 -7 0 -14 6 -13 13 1 41 -4 77
-12 77 -5 0 -7 -8 -4 -19 3 -10 0 -22 -5 -25 -7 -4 -9 8 -7 34 3 34 -1 43 -26
65 -17 14 -26 25 -20 25 19 0 12 39 -9 52 -11 7 -20 16 -20 21 0 4 5 5 10 2 6
-3 10 1 10 9 0 9 -4 16 -8 16 -5 0 -9 6 -10 13 0 6 -8 41 -17 77 -11 44 -13
66 -6 68 6 2 8 9 4 15 -13 21 -12 38 3 44 8 3 14 12 14 20 0 9 -5 11 -12 7
-10 -6 -10 -5 -1 7 9 11 9 19 2 26 -7 7 -5 14 6 23 13 11 15 9 15 -9 0 -28 27
-81 41 -81 13 0 39 -25 39 -38 0 -14 35 -21 51 -11 11 8 10 12 -6 24 -11 8
-25 19 -32 25 -7 5 -17 10 -23 10 -16 0 -12 21 8 36 22 17 32 17 32 1 0 -18
52 -67 71 -67 8 0 28 14 44 30 16 17 34 30 41 30 14 0 27 -28 19 -41 -4 -5 1
-6 9 -3 10 4 16 1 16 -7 0 -9 3 -10 11 -2 8 8 8 17 -1 33 -8 15 -8 20 -1 16
14 -9 14 0 0 25 -9 18 -8 19 9 10 10 -5 25 -18 33 -28 13 -16 12 -17 -3 -4
-22 16 -24 -1 -3 -19 52 -43 43 84 -12 153 -32 41 -40 103 -16 129 10 12 12
18 5 14 -19 -11 -14 8 8 26 19 17 19 16 16 -10 -1 -15 3 -33 10 -40 18 -16 28
3 14 28 -8 15 -8 20 2 21 37 5 54 3 66 -5 9 -7 11 -4 6 9 -5 13 -4 16 4 11 7
-4 12 -1 12 8 0 31 16 16 38 -34 38 -86 48 -138 34 -161 -17 -27 -6 -83 15
-75 8 3 19 6 24 6 5 0 9 6 9 13 0 6 10 23 21 37 11 14 18 19 14 13 -7 -14 11
-18 19 -5 8 13 66 13 89 0 15 -8 17 -12 7 -18 -7 -5 -20 -6 -28 -2 -10 3 -13
1 -8 -6 4 -7 1 -12 -6 -12 -8 0 -30 -16 -49 -36 -19 -19 -26 -32 -16 -29 20 8
22 -5 5 -25 -11 -12 -10 -12 5 -1 21 16 23 -1 2 -19 -8 -7 -15 -17 -15 -23 0
-6 12 1 27 14 28 25 78 59 87 59 3 0 6 -15 8 -32 2 -23 11 -36 28 -45 14 -7
21 -13 15 -14 -34 -2 -68 -9 -72 -13 -13 -13 13 -26 53 -26 43 0 94 29 94 53
0 6 -9 2 -20 -8 -11 -10 -23 -15 -27 -11 -7 6 38 44 46 37 2 -1 8 3 12 11 7
11 11 10 19 -2 7 -11 1 -23 -23 -48 l-31 -32 39 14 c22 7 39 19 37 26 -1 6 1
9 6 6 14 -8 54 25 48 40 -3 8 1 14 8 14 8 0 17 8 20 17 4 10 4 15 1 11 -12
-11 -59 21 -60 42 -2 21 10 27 20 10 4 -6 22 -9 40 -8 19 1 37 -1 41 -5 4 -4
-7 -7 -24 -7 -18 0 -32 -5 -32 -10 0 -11 41 -4 70 10 10 5 25 0 43 -16 16 -13
22 -24 15 -24 -10 0 -13 -20 -13 -76 0 -52 -4 -78 -12 -81 -7 -3 -13 -15 -13
-26 1 -42 -5 -72 -14 -79 -5 -3 -9 -46 -8 -94 0 -48 -2 -93 -6 -98 -4 -6 -8
-20 -8 -31 -1 -11 -5 -31 -9 -45 -8 -27 -8 -100 1 -141 7 -34 164 -181 216
-201 29 -12 9 -41 -112 -167 -8 -9 -37 -45 -65 -81 -68 -88 -87 -110 -98 -110
-5 0 -37 -22 -71 -48 -33 -26 -72 -53 -86 -59 -14 -6 -45 -20 -70 -32 l-45
-20 538 -1 537 0 0 208 0 209 -39 -4 c-24 -2 -42 1 -47 8 -5 9 -2 10 11 5 15
-5 16 -4 5 9 -12 14 -10 15 13 10 21 -6 27 -3 27 8 0 11 -9 15 -27 14 -23 -2
-27 2 -25 18 5 25 2 24 35 18 18 -4 27 -12 27 -25 0 -10 5 -16 10 -13 17 10
12 65 -6 65 -8 0 -12 -4 -9 -10 3 -5 -1 -10 -10 -10 -9 0 -14 4 -10 10 3 5 -6
5 -24 -1 -17 -6 -30 -14 -30 -17 3 -18 -2 -32 -10 -32 -5 0 -7 9 -4 20 3 12 0
20 -6 20 -7 0 -9 -4 -6 -10 3 -6 -2 -10 -11 -10 -10 0 -14 3 -11 7 4 3 -1 12
-11 20 -14 13 -15 14 -1 10 22 -7 78 28 75 46 -1 8 -7 21 -14 29 -16 20 -5 29
23 18 13 -5 27 -6 31 -2 5 4 2 -1 -5 -11 -16 -21 -7 -35 12 -19 10 8 13 5 15
-15 2 -30 9 -40 19 -29 4 4 2 15 -4 25 -7 11 -8 23 -2 32 5 8 9 433 9 987 l0
972 -1280 0 -1280 0 0 -1280z m905 203 c9 4 14 3 10 -3 -3 -6 -13 -10 -21 -10
-8 0 -14 -5 -14 -11 0 -5 -4 -8 -9 -5 -5 4 -12 -7 -16 -24 -4 -16 -11 -30 -16
-30 -15 0 -10 36 6 50 8 7 12 17 9 22 -4 6 0 14 7 19 8 4 16 3 20 -3 4 -6 14
-8 24 -5z m76 -36 c20 -2 45 -9 55 -16 15 -8 4 -10 -51 -5 -87 7 -108 13 -80
24 11 4 25 6 30 4 6 -2 26 -5 46 -7z m612 -14 c-13 -2 -35 -2 -50 0 -16 2 -5
4 22 4 28 0 40 -2 28 -4z m460 -13 c-6 -24 -23 -37 -23 -18 0 12 18 38 26 38
1 0 0 -9 -3 -20z m-973 -4 c0 -3 -4 -8 -10 -11 -5 -3 -10 -1 -10 4 0 6 5 11
10 11 6 0 10 -2 10 -4z m386 -21 c-9 -9 -16 -13 -16 -8 0 12 22 34 28 28 2 -2
-3 -11 -12 -20z m565 -83 c-6 -2 -11 -13 -11 -24 0 -17 -3 -18 -14 -9 -18 15
-12 52 11 69 16 11 18 10 21 -10 2 -12 -1 -24 -7 -26z m-23 -89 c-1 -5 3 -17
9 -28 13 -24 6 -82 -11 -88 -6 -2 -21 -1 -34 4 -21 8 -22 10 -8 43 8 19 12 37
8 40 -3 3 0 6 6 6 7 0 12 7 12 15 0 8 5 15 10 15 6 0 9 -3 8 -7z m-16 -203 c5
0 2 -7 -6 -16 -18 -17 -36 -11 -36 13 0 10 6 13 16 9 9 -3 20 -6 26 -6z
m-1155 -46 c-3 -3 -12 -4 -19 -1 -8 3 -5 6 6 6 11 1 17 -2 13 -5z m1070 -19
c-7 -14 -15 -25 -19 -25 -11 0 -10 8 2 31 16 28 30 23 17 -6z m-972 -175 c3
-5 2 -10 -4 -10 -5 0 -13 5 -16 10 -3 6 -2 10 4 10 5 0 13 -4 16 -10z m-110
-30 c-3 -5 -12 -7 -20 -3 -21 7 -19 13 6 13 11 0 18 -4 14 -10z m27 -22 c-6
-6 -12 -6 -17 3 -5 8 -4 10 3 5 7 -4 12 0 13 11 0 12 2 13 6 5 3 -8 1 -18 -5
-24z m93 21 c11 -17 0 -20 -21 -4 -17 13 -17 14 -2 15 9 0 20 -5 23 -11z
m1018 -16 c-7 -2 -19 -2 -25 0 -7 3 -2 5 12 5 14 0 19 -2 13 -5z m-1148 -13
c3 -5 1 -10 -4 -10 -6 0 -11 5 -11 10 0 6 2 10 4 10 3 0 8 -4 11 -10z m-125
-40 c0 -5 -5 -10 -11 -10 -5 0 -7 5 -4 10 3 6 8 10 11 10 2 0 4 -4 4 -10z
m1553 -73 c4 3 7 -2 7 -12 0 -14 3 -15 14 -6 10 9 15 8 19 -3 4 -10 1 -13 -9
-9 -8 3 -14 -1 -14 -11 0 -9 -6 -16 -12 -17 -10 0 -10 -2 0 -6 6 -2 12 -11 12
-19 0 -8 6 -11 18 -7 14 5 14 3 -3 -10 -10 -8 -25 -12 -33 -9 -11 4 -11 6 0
13 11 7 10 11 -1 18 -12 8 -13 12 -1 26 11 14 11 16 -1 13 -8 -2 -13 3 -11 10
1 6 -2 12 -8 12 -5 0 -10 7 -10 16 0 13 3 14 13 5 8 -6 17 -8 20 -4z m172 -17
c-3 -5 1 -10 10 -10 9 0 13 5 10 10 -3 6 -2 10 3 10 6 0 12 -7 16 -15 4 -11
-1 -15 -19 -15 -25 0 -39 12 -28 24 10 9 15 7 8 -4z m-58 -16 c-3 -3 -12 -4
-19 -1 -8 3 -5 6 6 6 11 1 17 -2 13 -5z m-153 -33 c3 -5 -1 -11 -9 -14 -9 -4
-12 -1 -8 9 6 16 10 17 17 5z m266 -90 c0 -15 -57 -23 -77 -12 -14 9 -12 9 13
5 19 -4 34 -1 38 5 9 13 26 15 26 2z m-455 -81 c-3 -5 -11 -10 -16 -10 -6 0
-7 5 -4 10 3 6 11 10 16 10 6 0 7 -4 4 -10z"/>
<path d="M1176 1667 c3 -10 9 -15 12 -12 3 3 0 11 -7 18 -10 9 -11 8 -5 -6z"/>
<path d="M1137 1322 c-10 -10 -17 -23 -17 -28 0 -5 4 -2 10 6 5 8 13 11 17 6
4 -4 -5 -19 -22 -33 -17 -14 -21 -20 -9 -14 28 13 40 31 42 59 1 27 0 27 -21
4z"/>
<path d="M940 1295 c-18 -22 7 -28 35 -9 14 9 25 17 25 19 0 9 -52 0 -60 -10z"/>
<path d="M993 1286 c-13 -6 -23 -14 -23 -17 0 -15 45 -18 56 -4 6 8 18 15 27
15 9 0 19 5 22 10 8 13 -54 11 -82 -4z"/>
<path d="M1120 1239 c0 -5 5 -7 10 -4 6 3 10 8 10 11 0 2 -4 4 -10 4 -5 0 -10
-5 -10 -11z"/>
<path d="M1741 769 c-7 -12 -10 -23 -8 -26 3 -3 11 5 17 17 15 28 8 35 -9 9z"/>
<path d="M1716 714 c-9 -23 -2 -28 13 -10 7 8 8 17 3 20 -6 3 -13 -1 -16 -10z"/>
<path d="M1130 633 c0 -4 17 -16 36 -26 26 -13 40 -15 49 -7 7 6 15 7 17 3 1
-5 10 -1 19 8 15 15 14 17 -15 16 -17 0 -48 3 -68 7 -21 4 -38 3 -38 -1z"/>
<path d="M1346 632 c-3 -6 -15 -8 -25 -5 -10 3 -22 0 -25 -6 -5 -7 4 -11 23
-11 28 0 49 15 38 26 -3 3 -8 1 -11 -4z"/>
<path d="M1500 529 c-6 -10 -18 -19 -26 -19 -9 0 -28 -9 -43 -19 -15 -11 -39
-23 -54 -26 -15 -4 -30 -11 -33 -16 -3 -5 -10 -7 -15 -4 -5 4 -9 2 -9 -4 0
-17 38 -33 46 -19 5 7 3 8 -6 3 -9 -5 -11 -4 -6 4 6 9 11 9 21 1 7 -6 15 -7
17 -2 1 4 31 25 66 46 36 22 59 42 56 48 -4 6 -2 8 3 5 6 -4 16 -1 21 6 8 10
6 13 -8 14 -11 1 -25 -7 -30 -18z"/>
<path d="M1619 93 c-13 -16 -12 -17 4 -4 16 13 21 21 13 21 -2 0 -10 -8 -17
-17z"/>
</g>
</svg>
